#!OML:ASF X:\für Bonn\!DataBase\2005_08_11_Bastian_Final\c3d\Bastian.ASF
:FULLY-SPECIFIED
:DEGREES
48
root 0.618309 10.132 1.02809 169.92 -1.76062 -172.79
lowerback 30.6613 -0.520186 1.56345
upperback 4.9282 -1.31837 2.0785
thorax -11.2785 -1.21229 2.10992
lowerneck -13.6329 -6.09397 -2.83723
upperneck -8.93571 -6.02301 11.6691
head -0.0210865 -2.21754 4.08407
rclavicle -5.96354e-015 9.54166e-015
rhumerus 72.0016 0.741847 20.9699
rradius 42.8413
rwrist -74.4668
rhand -45.4425 -4.59564
rfingers 7.12502
rthumb -18.2094 -33.7633
lclavicle -5.96354e-015 9.54166e-015
lhumerus 62.3012 -7.07999 -30.37
lradius 33.1921
lwrist 27.9051
lhand -44.2694 19.1225
lfingers 7.12502
lthumb -17.0805 48.3916
rfemur -49.0345 -15.7176 24.2997
rtibia 127.992
rfoot -46.56 -6.48854
rtoes -13.8324
lfemur -52.4663 15.527 -9.56596
ltibia 132.388
lfoot -45.5412 -14.0544
ltoes -19.4126
49
root 0.625406 9.86382 1.03335 169.792 -1.70882 -172.872
lowerback 31.2683 -0.417931 1.43144
upperback 4.56894 -1.24841 2.15574
thorax -11.1669 -1.21122 2.11219
lowerneck -13.7289 -6.13522 -2.86405
upperneck -9.18879 -6.01019 11.7015
head -0.0874834 -2.19595 4.1033
rclavicle -1.55052e-014 -3.97569e-016
rhumerus 71.8477 0.330353 21.1742
rradius 42.8039
rwrist -74.796
rhand -45.3577 -4.5596
rfingers 7.12502
rthumb -18.1278 -33.7349
lclavicle -1.55052e-014 -3.97569e-016
lhumerus 62.0992 -6.50186 -29.6363
lradius 33.166
lwrist 27.8166
lhand -44.4476 18.9846
lfingers 7.12502
lthumb -17.252 48.2388
rfemur -50.2944 -17.2871 23.9101
rtibia 130.556
rfoot -46.9586 -5.95777
rtoes -13.6529
lfemur -53.5195 17.636 -9.09071
ltibia 134.869
lfoot -46.1777 -14.855
ltoes -19.6518
50
root 0.631854 9.60303 1.03794 169.635 -1.65206 -172.975
lowerback 31.7268 -0.307339 1.28641
upperback 4.65051 -1.19405 2.14027
thorax -11.2669 -1.20024 2.16635
lowerneck -13.8816 -6.18059 -2.81762
upperneck -9.4456 -6.0057 11.7079
head -0.149189 -2.17628 4.09775
rclavicle -1.09332e-015 -1.03368e-014
rhumerus 71.718 -0.0800962 21.2054
rradius 42.6882
rwrist -74.8907
rhand -45.2728 -4.60367
rfingers 7.12502
rthumb -18.0462 -33.7865
lclavicle -1.09332e-015 -1.03368e-014
lhumerus 61.8918 -5.90518 -28.8979
lradius 33.139
lwrist 27.6009
lhand -44.5914 18.8395
lfingers 7.12502
lthumb -17.3905 48.0816
rfemur -51.4782 -19.1184 23.4254
rtibia 133.048
rfoot -47.2889 -5.29067
rtoes -13.3021
lfemur -54.4788 20.0144 -8.63094
ltibia 137.26
lfoot -46.8841 -15.3621
ltoes -20.2514
51
root 0.638168 9.346 1.04191 169.493 -1.60002 -173.061
lowerback 32.1535 -0.201305 1.17552
upperback 4.72614 -1.13386 2.12478
thorax -11.3589 -1.18697 2.19848
lowerneck -14.0691 -6.23909 -2.7798
upperneck -9.63097 -6.03219 11.694
head -0.179564 -2.17201 4.08316
rclavicle 3.77691e-015 -4.37326e-015
rhumerus 71.5327 -0.492923 21.3788
rradius 42.6406
rwrist -75.1117
rhand -45.2501 -4.5927
rfingers 7.12502
rthumb -18.0243 -33.7775
lclavicle 3.77691e-015 -4.37326e-015
lhumerus 61.723 -5.32527 -28.2032
lradius 33.1003
lwrist 27.3182
lhand -44.6724 18.6203
lfingers 7.12502
lthumb -17.4684 47.8554
rfemur -52.6089 -21.2204 22.9031
rtibia 135.466
rfoot -47.5245 -4.52532
rtoes -12.756
lfemur -55.4683 22.6561 -8.13341
ltibia 139.576
lfoot -47.5544 -15.8616
ltoes -20.7438
52
root 0.644412 9.08916 1.04492 169.344 -1.55292 -173.166
lowerback 32.5437 -0.0926773 1.05442
upperback 4.81807 -1.07936 2.10346
thorax -11.416 -1.1773 2.23019
lowerneck -14.2417 -6.28962 -2.72653
upperneck -9.83256 -6.04932 11.6454
head -0.220833 -2.16472 4.05427
rclavicle -5.1684e-015 1.15295e-014
rhumerus 71.3032 -0.935606 21.8761
rradius 42.7054
rwrist -75.5931
rhand -45.4022 -4.59983
rfingers 7.12502
rthumb -18.1707 -33.7711
lclavicle -5.1684e-015 1.15295e-014
lhumerus 61.5446 -4.79631 -27.6454
lradius 33.0731
lwrist 27.0176
lhand -44.7516 18.4024
lfingers 7.12502
lthumb -17.5446 47.6307
rfemur -53.7067 -23.7169 22.2918
rtibia 137.852
rfoot -47.7516 -3.79668
rtoes -12.227
lfemur -56.4495 25.5912 -7.62
ltibia 141.846
lfoot -48.16 -16.3572
ltoes -20.9996
53
root 0.650115 8.83564 1.0482 169.196 -1.5043 -173.268
lowerback 32.9096 0.014235 0.940494
upperback 4.91547 -1.02614 2.09656
thorax -11.4556 -1.16925 2.27283
lowerneck -14.4047 -6.34833 -2.70025
upperneck -10.0262 -6.07931 11.5779
head -0.259929 -2.16482 4.02309
rclavicle -2.40529e-014 2.18663e-014
rhumerus 71.0936 -1.38103 22.4348
rradius 42.813
rwrist -76.0938
rhand -45.6663 -4.61066
rfingers 7.12502
rthumb -18.4247 -33.7581
lclavicle -2.40529e-014 2.18663e-014
lhumerus 61.3368 -4.32698 -27.1909
lradius 33.1017
lwrist 26.7506
lhand -44.8157 18.1922
lfingers 7.12502
lthumb -17.6063 47.415
rfemur -54.7455 -26.5984 21.6086
rtibia 140.19
rfoot -47.9966 -3.01988
rtoes -11.6105
lfemur -57.4029 28.7878 -7.0175
ltibia 144.047
lfoot -48.5985 -17.1052
ltoes -20.5405
54
root 0.655414 8.5898 1.05067 169.035 -1.46315 -173.373
lowerback 33.2582 0.108761 0.864638
upperback 5.0183 -0.980933 2.06008
thorax -11.4809 -1.16675 2.26544
lowerneck -14.5593 -6.40849 -2.6643
upperneck -10.202 -6.11521 11.5223
head -0.294049 -2.1683 3.99392
rclavicle 1.00386e-014 -1.03368e-014
rhumerus 70.9146 -1.76838 22.7312
rradius 42.8257
rwrist -76.3135
rhand -45.9185 -4.67633
rfingers 7.12502
rthumb -18.6673 -33.8006
lclavicle 1.00386e-014 -1.03368e-014
lhumerus 61.1425 -3.86786 -26.6759
lradius 33.1263
lwrist 26.231
lhand -44.8057 18.0341
lfingers 7.12502
lthumb -17.5967 47.2578
rfemur -55.6069 -29.91 20.797
rtibia 142.442
rfoot -48.3229 -2.2109
rtoes -10.8732
lfemur -58.2252 32.2252 -6.30895
ltibia 146.137
lfoot -48.9128 -18.1674
ltoes -19.1863
